<svg width="16" height="16" viewBox="0 0 16 16" fill="none" xmlns="http://www.w3.org/2000/svg">
<path fill-rule="evenodd" clip-rule="evenodd" d="M15.8596 14.6246L12.0733 10.8382C12.0016 10.7665 11.908 10.729 11.8082 10.729H11.3965C12.3789 9.59064 12.9747 8.10916 12.9747 6.48733C12.9747 2.9037 10.071 0 6.48733 0C2.9037 0 0 2.9037 0 6.48733C0 10.071 2.9037 12.9747 6.48733 12.9747C8.10916 12.9747 9.59064 12.3789 10.729 11.3965V11.8082C10.729 11.908 10.7696 12.0016 10.8382 12.0733L14.6246 15.8596C14.7711 16.0062 15.0082 16.0062 15.1548 15.8596L15.8596 15.1548C16.0062 15.0082 16.0062 14.7711 15.8596 14.6246ZM6.48733 11.4776C3.73021 11.4776 1.49708 9.24444 1.49708 6.48733C1.49708 3.73021 3.73021 1.49708 6.48733 1.49708C9.24444 1.49708 11.4776 3.73021 11.4776 6.48733C11.4776 9.24444 9.24444 11.4776 6.48733 11.4776Z" fill="#616161"/>
</svg>
