<svg width="142" height="32" viewBox="0 0 142 32" fill="none" xmlns="http://www.w3.org/2000/svg">
<path d="M142 22.0258C141.607 21.9575 141.214 21.8285 140.822 21.83C137.1 21.8422 133.385 21.8786 129.656 21.9044C125.536 21.9317 121.415 21.9666 117.294 21.9772C112.932 21.9879 108.568 21.9575 104.206 21.9772C100.525 21.9939 96.8447 22.0683 93.164 22.0941C90.1405 22.1153 87.117 22.0941 84.092 22.1032C80.4689 22.1032 76.8444 22.1214 73.2198 22.1138C68.6542 22.1017 64.0871 22.0516 59.5199 22.0561C54.9528 22.0607 50.3933 22.132 45.8292 22.1396C42.6053 22.1396 39.3799 22.0774 36.1546 22.0774C32.2492 22.0774 28.3454 22.1426 24.44 22.1335C18.9986 22.1199 13.5557 22.0592 8.11429 22.0288C5.48086 22.0152 2.84592 22.0288 0.0409812 22.0288C0.0409812 20.5417 0.0409812 19.264 0.0409812 17.9879C0.0288387 14.7344 0 11.4841 0 8.23369C0 5.76631 0.0470525 3.28983 0.0197317 0.817906C0.0106248 0.0849772 0.350617 0.0121396 0.939533 0.0136571C6.84994 0.0257967 12.7598 0.0268083 18.6692 0.016692C24.778 0.0136571 30.8872 0.00809307 36.997 0H51.3768C56.8541 0 62.332 0 67.8103 0C73.5143 0 79.2183 0.00809307 84.9222 0.0242792C91.4367 0.030349 97.9507 0.030349 104.464 0.0242792C110.621 0.0242792 116.778 0 122.935 0.0121396C127.729 0.0212443 132.524 0.07739 137.319 0.0940819C138.881 0.107739 140.44 0.0515933 142 0.0227618V22.0258ZM140.499 1.74659H1.58005V20.2822H140.499V1.74659Z" fill="white"/>
<path d="M96.6688 28.5417C97.5415 29.3642 97.71 30.6661 97.071 31.4066C96.5868 31.9605 94.9461 32.0212 94.3147 31.5083C93.6089 30.9393 93.7075 29.7754 94.5636 28.5265C93.9109 27.4805 93.8709 26.7122 94.4437 26.2215C95.0508 25.6995 96.4168 25.7496 96.9739 26.3156C97.4444 26.786 97.3397 27.6176 96.6688 28.5417ZM95.5608 30.9393C95.6661 30.9589 95.7742 30.9589 95.8795 30.9393C96.0399 30.9141 96.189 30.8413 96.3076 30.7304C96.4261 30.6194 96.5086 30.4755 96.5443 30.3171C96.6096 29.9317 96.2787 29.5584 95.9873 29.3566C95.8809 29.2754 95.7507 29.2317 95.6169 29.2321C95.516 29.2463 95.4195 29.2828 95.3344 29.339C95.2493 29.3952 95.1779 29.4696 95.1252 29.5569C94.9506 29.8057 94.7063 30.1229 94.8383 30.4385C94.9567 30.7223 95.2785 30.8862 95.5608 30.9393ZM95.6063 26.7739C95.198 26.8073 94.7821 27.3733 95.151 27.6843C95.2523 27.7631 95.3695 27.8188 95.4946 27.8476C95.6196 27.8764 95.7494 27.8777 95.875 27.8513C96.4441 27.7147 96.2408 27.1244 95.8947 26.8573C95.8124 26.7944 95.7095 26.7647 95.6063 26.7739Z" fill="white"/>
<path d="M8.65178 28.3217C8.77625 27.9211 8.97053 27.5266 9.00999 27.1184C9.08133 26.4082 9.54578 26.4294 10.0406 26.4583C10.628 26.4917 10.4276 26.9575 10.4352 27.2625C10.4686 28.5736 10.4489 29.8862 10.4944 31.1973C10.5172 31.8407 10.2774 32.0167 9.6323 31.8043V28.0061L9.46989 27.9742C9.30748 28.5675 9.15722 29.1639 8.97204 29.7481C8.92044 29.909 8.7641 30.0364 8.65482 30.1791C8.50304 30.044 8.28447 29.9363 8.22072 29.7694C8.00064 29.1882 7.83519 28.5842 7.54225 28C7.54225 28.956 7.54225 29.9105 7.54225 30.8665C7.54225 31.0425 7.60904 31.2428 7.54225 31.3885C7.45877 31.5766 7.27512 31.7193 7.13548 31.8817C7.00343 31.7299 6.76361 31.5933 6.75906 31.4446C6.71453 29.908 6.69683 28.3703 6.70593 26.8316C6.70593 26.7071 6.96093 26.4613 7.05655 26.4795C7.38895 26.5433 7.85037 26.6085 7.99457 26.8407C8.26322 27.2716 8.34367 27.8194 8.50304 28.3202L8.65178 28.3217Z" fill="white"/>
<path d="M18.8303 31.9211C18.2064 32.0971 17.9408 31.959 17.9499 31.3885C17.9712 29.9484 17.9909 28.5053 17.9712 27.0683C17.9636 26.5539 18.1639 26.3854 18.6421 26.4325C18.8925 26.4567 19.1475 26.4552 19.401 26.4583C20.424 26.4765 20.9112 26.7618 21.1328 27.4901C21.3954 28.349 21.1601 29.0683 20.3648 29.6677L21.6155 31.8877C20.9719 32.0698 20.5682 32.0835 20.3268 31.481C20.1503 31.0617 19.9278 30.6632 19.6636 30.2929C19.5239 30.091 19.2826 29.959 19.0883 29.7967C19.0018 30.0243 18.8621 30.2519 18.8424 30.4825C18.8029 30.956 18.8303 31.4279 18.8303 31.9211ZM18.8105 27.3869C18.8348 27.9423 18.8546 28.3718 18.8758 28.8467C19.4996 28.78 20.2525 29.0455 20.2889 28.1791C20.3299 27.1988 19.4693 27.5903 18.8105 27.3869Z" fill="white"/>
<path d="M66.863 26.4309C67.4595 26.2442 67.7828 26.44 68.0226 27.0227C68.4086 27.9549 68.8897 28.8448 69.4585 29.6782C69.4585 28.7814 69.4327 27.8846 69.4752 26.9908C69.4873 26.7647 69.718 26.5493 69.8486 26.3292C69.9836 26.5462 70.225 26.7587 70.2341 26.9817C70.2902 28.3383 70.316 29.698 70.2948 31.0561C70.2948 31.3323 70.1035 31.7465 69.8835 31.8528C69.4008 32.0849 69.2657 31.6039 69.1063 31.2716C68.6577 30.2792 68.1467 29.3162 67.5764 28.3884C67.5764 29.3778 67.5612 30.3611 67.5764 31.3565C67.587 31.8649 67.373 31.9863 66.8569 31.8118L66.863 26.4309Z" fill="white"/>
<path d="M42.4049 29.786C42.4049 28.8923 42.3806 27.997 42.4216 27.1032C42.4322 26.868 42.6174 26.4598 42.7647 26.4401C43.2898 26.3672 43.1638 26.8164 43.1654 27.1229C43.1654 28.6828 43.1654 30.2413 43.1654 31.7936C42.5916 32.0577 42.2926 31.8346 42.071 31.3475C41.6207 30.3209 41.1046 29.3244 40.5259 28.3642V31.78C40.11 31.8452 39.7305 32.0698 39.729 31.4416C39.729 29.8073 39.729 28.1715 39.729 26.5311C40.3877 26.2564 40.7338 26.4218 40.9842 27.0577C41.3561 28.0015 41.8266 28.9074 42.2547 29.83L42.4049 29.786Z" fill="white"/>
<path d="M15.6744 27.4446H13.4705V28.5782H15.3693L15.5333 29.6055H13.4781V30.9955C14.0178 31.0194 14.5583 31.0159 15.0976 30.9848C15.8459 30.9044 15.9856 31.2367 15.7867 31.9241H12.5856C12.5856 30.1988 12.5735 28.5402 12.6069 26.8832C12.6069 26.7314 12.8983 26.4886 13.0622 26.4719C13.6891 26.4143 14.3266 26.4719 14.9535 26.4173C15.7609 26.3475 15.8566 26.7375 15.6744 27.4446Z" fill="white"/>
<path d="M78.8631 29.4567V30.8573H81.1398C81.161 31.1836 81.1762 31.4461 81.1975 31.789H78.0161V26.4203H81.0123V27.3687H78.7826C78.8039 27.7663 78.8206 28.1062 78.8418 28.5083H80.7558C80.777 28.8315 80.7952 29.0971 80.818 29.4567H78.8631Z" fill="white"/>
<path d="M29.6416 28.481C29.7206 28.5266 29.7403 28.5478 29.763 28.5493C31.2581 28.6571 31.2809 28.6571 31.246 27.129C31.2338 26.5357 31.3826 26.2443 32.1369 26.4901C32.1369 27.0744 32.1369 27.695 32.1369 28.3111C32.1369 29.2686 32.1369 30.2261 32.1673 31.1821C32.1855 31.7238 32.0504 32.0228 31.3325 31.8179V29.5903H29.6401V31.8042C29.0846 31.9772 28.7841 31.956 28.7916 31.3369C28.8099 29.9044 28.7749 28.4719 28.8083 27.041C28.8083 26.827 29.039 26.4825 29.2212 26.434C29.6887 26.3171 29.6371 26.7223 29.6401 27.0197C29.6447 27.5038 29.6416 27.9818 29.6416 28.481Z" fill="white"/>
<path d="M105.816 30.827C106.34 30.827 106.864 30.8406 107.387 30.827C108.032 30.8057 108.345 31.0364 108.092 31.8057C107.205 31.8057 106.282 31.7966 105.36 31.8057C104.956 31.8057 104.853 31.6297 104.851 31.2519C104.851 30.1897 105.208 29.3368 106.126 28.7572C106.231 28.6904 106.348 28.6403 106.445 28.5645C106.885 28.2246 107.551 27.9939 107.252 27.2352C107.064 26.7572 106.279 26.6919 105.555 27.0531C105.404 27.129 105.252 27.2261 105.1 27.3156C104.796 26.4294 104.921 26.1578 105.737 25.9211C106.745 25.6297 107.624 25.9211 108.052 26.6798C108.463 27.4142 108.204 28.349 107.412 29.0151C106.818 29.5174 106.231 30.0273 105.64 30.5326L105.816 30.827Z" fill="white"/>
<path d="M99.481 28.7102C99.5341 27.862 99.569 27.0638 99.654 26.2701C99.6677 26.1503 99.9151 25.9758 100.067 25.9667C100.72 25.9105 101.377 25.8877 102.031 25.8862C102.779 25.8862 102.465 26.4401 102.539 26.9135C102.053 26.935 101.565 26.9319 101.079 26.9044C100.401 26.8316 100.296 27.1579 100.407 27.7057C102.058 27.8088 102.72 28.4507 102.684 29.8938C102.655 31.0972 101.527 31.8195 99.657 31.8316C99.4005 30.9742 99.4294 30.9302 100.264 30.8392C100.49 30.818 100.714 30.78 100.934 30.7254C101.516 30.5736 101.873 30.217 101.823 29.5888C101.768 28.9151 101.275 28.7406 100.698 28.7163C100.328 28.6981 99.9576 28.7102 99.481 28.7102Z" fill="white"/>
<path d="M59.2104 28.0562C58.8658 27.8892 58.6033 27.7527 58.3422 27.6404C58.0729 27.5049 57.7849 27.4103 57.4877 27.3596C57.3662 27.349 57.087 27.692 57.1112 27.7329C57.2633 27.9969 57.4624 28.2309 57.6986 28.4234C58.0371 28.6813 58.4454 28.8452 58.7869 29.0986C59.3045 29.4826 59.4942 30.3991 59.1967 31.0334C58.878 31.7132 58.286 31.9439 57.5787 31.9044C56.8714 31.865 56.2962 31.5797 56.1596 30.8043C56.1262 30.6191 56.2355 30.4082 56.2795 30.2094C56.5173 30.2821 56.7505 30.3693 56.9777 30.4704C57.2661 30.6222 57.5226 30.8877 57.8155 30.9257C58.0052 30.9515 58.3361 30.6996 58.4226 30.4962C58.4864 30.3445 58.3164 29.9939 58.1494 29.8695C57.7077 29.5402 57.1886 29.3202 56.7439 28.9939C56.2127 28.6055 56.0564 27.739 56.3478 27.1502C56.6392 26.5615 57.4619 26.176 58.1525 26.3338C58.8916 26.5068 59.2195 26.9621 59.2104 28.0562Z" fill="white"/>
<path d="M33.9888 31.8407C34.4836 29.997 34.9617 28.217 35.4292 26.4719C36.2397 26.1684 36.5402 26.4962 36.7133 27.2215C37.0168 28.5174 37.4221 29.7921 37.7757 31.0774C37.8395 31.3111 37.8699 31.5554 37.9154 31.7936L37.7166 31.9939C37.4767 31.8088 37.1094 31.6722 37.0184 31.4325C36.6009 30.2944 36.6283 30.2838 35.2941 30.4158C34.8676 30.8498 35.3654 32.0182 33.9888 31.8407ZM36.4416 29.2868C36.3004 28.7511 36.1744 28.2762 36.0485 27.8027L35.8967 27.8179C35.7798 28.2913 35.6644 28.7648 35.5354 29.2868H36.4416Z" fill="white"/>
<path d="M26.5621 28.0182C26.2479 27.8847 25.9807 27.8255 25.7834 27.6753C25.2309 27.2595 24.6466 27.3521 24.5267 28.0228C24.3877 28.7839 24.382 29.5633 24.51 30.3263C24.6375 31.044 25.1717 31.1032 25.8108 30.651C26.0035 30.5144 26.3056 30.5342 26.556 30.4841C26.556 30.7193 26.6349 30.9773 26.556 31.1852C26.2904 31.9439 25.2294 32.2474 24.5373 31.7709C24.2206 31.5645 23.9665 31.2753 23.8027 30.9348C23.5642 30.3507 23.4439 29.7251 23.4489 29.0943C23.4538 28.4634 23.5839 27.8398 23.8315 27.2595C24.1351 26.5311 24.894 26.2398 25.6529 26.4583C26.4118 26.6768 26.6516 27.0107 26.5621 28.0182Z" fill="white"/>
<path d="M75.6406 27.8968C75.2824 27.7602 74.9652 27.7071 74.7299 27.5356C74.2882 27.2094 73.7934 27.2534 73.5369 27.7511C73.0815 28.6176 73.1817 29.525 73.4777 30.4006C73.6568 30.9332 74.2624 30.9969 74.7314 30.6555C74.9576 30.4916 75.2536 30.4233 75.5526 30.2974C75.6497 31.22 75.3704 31.6494 74.6662 31.8437C73.9072 32.0515 73.0178 31.7192 72.8023 30.9544C72.5685 30.1229 72.5336 29.2306 72.4759 28.3596C72.4547 28.0212 72.5852 27.6631 72.6915 27.3277C72.7977 26.9858 73.024 26.6939 73.3286 26.5056C73.6332 26.3174 73.9955 26.2456 74.3489 26.3034C75.2262 26.4218 75.5419 26.7663 75.6406 27.8968Z" fill="white"/>
<path d="M63.5566 30.8149L64.3957 30.9211V31.8862C63.7326 31.8862 63.0817 31.9196 62.4384 31.868C62.2093 31.8498 61.8709 31.6708 61.8042 31.4841C61.6615 31.0926 61.9149 30.8908 62.3307 30.8938C62.4527 30.881 62.5722 30.8509 62.6857 30.8043V27.4219L62.0272 27.3126C61.8982 26.2641 62.3443 26.0881 64.2697 26.4113C64.288 26.6632 64.3062 26.9318 64.3274 27.2459L63.5688 27.4416L63.5566 30.8149Z" fill="white"/>
<path d="M46.4698 27.4172C45.0248 27.4006 45.0248 27.4006 45.2009 26.4415H48.5401C48.7997 27.264 48.7557 27.3641 47.9725 27.3657C47.4397 27.3657 47.2758 27.5614 47.3016 28.0834C47.3532 29.1608 47.3653 30.2412 47.3517 31.3186C47.3517 31.5174 47.1756 31.8421 47.0208 31.8831C46.6808 31.9742 46.4911 31.7814 46.4971 31.3748C46.5108 30.2943 46.482 29.2139 46.4728 28.1335C46.4683 27.8937 46.4698 27.654 46.4698 27.4172Z" fill="white"/>
<path d="M90.1067 27.2413L88.8064 28.3035C88.7018 27.3702 89.3921 26.2579 90.1826 26.0455C90.6378 25.9241 90.9958 25.8938 90.9701 26.6146C90.917 28.173 90.9792 29.7344 90.9564 31.2944C90.9564 31.4886 90.7227 31.6798 90.5983 31.871C90.4345 31.6798 90.134 31.4916 90.128 31.2944C90.0855 30.0152 90.1067 28.7329 90.1067 27.2413Z" fill="white"/>
<path d="M135.331 15.8771C134.977 15.8999 134.724 15.909 134.484 15.9317C133.898 15.9879 133.544 15.7982 133.277 15.2003C132.316 13.0455 131.28 10.9257 130.14 8.82702V15.827C129.986 15.8747 129.83 15.9112 129.671 15.9363C128.656 16.0106 128.649 16.0061 128.646 15.0015C128.635 12.1275 128.627 9.25292 128.621 6.37786C128.621 6.17907 128.639 5.97877 128.648 5.78757C129.997 5.38241 130.327 5.50836 130.911 6.69804C131.762 8.44311 132.597 10.1973 133.44 11.9454C133.518 12.131 133.659 12.2835 133.837 12.3763C133.837 11.088 133.837 9.79667 133.837 8.50836C133.837 7.80122 133.856 7.09258 133.801 6.38393C133.757 5.79819 134.004 5.65858 134.54 5.63582C135.076 5.61306 135.328 5.7557 135.326 6.3293C135.316 8.69956 135.326 11.0713 135.326 13.4416C135.332 14.2291 135.331 15.0091 135.331 15.8771Z" fill="white"/>
<path d="M32.6228 12.4097C32.6228 10.4219 32.6577 8.434 32.6046 6.44766C32.5864 5.72232 32.9081 5.62217 33.4955 5.63127C33.9145 5.63127 34.092 5.77391 34.092 6.1988C34.0839 9.35206 34.0804 12.5058 34.0814 15.6601C34.0666 15.7633 34.0422 15.8649 34.0086 15.9636C33.6682 15.9439 33.327 15.9469 32.9871 15.9727C32.5681 16.0288 32.3511 15.8832 32.175 15.4977C31.2947 13.5766 30.3886 11.6692 29.4885 9.75722C29.3331 9.39275 29.1255 9.05282 28.8722 8.74812V15.9332H27.4865C27.4865 14.9833 27.4865 14.0349 27.4865 13.085C27.4728 10.8392 27.4683 8.59334 27.4227 6.34903C27.4121 5.78605 27.6367 5.67073 28.1361 5.66617C28.895 5.66617 29.3913 5.85889 29.7222 6.66617C30.4371 8.41428 31.2992 10.1032 32.1052 11.8149C32.2084 12.0349 32.3268 12.2458 32.4376 12.4598L32.6228 12.4097Z" fill="white"/>
<path d="M91.8767 5.68892H93.1942C93.2263 5.78766 93.2487 5.88931 93.261 5.99241C93.261 9.27314 93.261 12.5549 93.261 15.8376C92.1439 16.2504 91.684 16.0637 91.2119 15.0364C90.3609 13.1791 89.5008 11.3242 88.6316 9.47193C88.5315 9.25797 88.3918 9.0607 88.1763 8.69044V15.8649C86.8011 16.1684 86.7419 16.1426 86.7344 14.8483C86.7146 11.8452 86.7344 8.8437 86.7344 5.74355C87.2246 5.71017 87.7194 5.63278 88.2051 5.6692C88.3797 5.68133 88.5952 5.94082 88.6893 6.13657C89.6167 8.07132 90.5213 10.0167 91.435 11.959C91.5276 12.1956 91.6791 12.4045 91.8752 12.566L91.8767 5.68892Z" fill="white"/>
<path d="M42.6264 11.5736C43.449 13 44.258 14.4052 45.0837 15.8392C44.9956 15.8855 44.9043 15.9255 44.8105 15.959C43.6798 16.214 42.9755 15.7921 42.5581 14.695C42.2834 13.9712 41.7567 13.3445 41.4713 12.6237C41.1586 11.8331 40.6608 11.6859 39.8685 11.9302V15.9333H38.3188C38.3188 14.6707 38.3188 13.4446 38.3188 12.217C38.3051 10.2276 38.2687 8.23826 38.2778 6.24888C38.2778 6.08045 38.5616 5.7724 38.718 5.76937C39.9216 5.75419 41.1465 5.69198 42.3274 5.85435C43.5082 6.01671 44.1032 6.91504 44.3203 8.04251C44.551 9.23067 44.3931 10.3081 43.3519 11.0956C43.1364 11.2656 42.8966 11.3991 42.6264 11.5736ZM39.8351 10.217C40.5743 10.1381 41.1905 10.0774 41.8083 10.0031C42.5672 9.91201 42.7691 9.33841 42.8191 8.7117C42.8708 8.05161 42.5399 7.56755 41.8826 7.44919C41.2543 7.33538 40.6031 7.33993 39.9171 7.28834C39.8852 7.66315 39.8457 7.93325 39.8427 8.19881C39.829 8.82703 39.8351 9.4507 39.8351 10.217Z" fill="white"/>
<path d="M103.893 7.7299C103.003 7.91047 102.426 8.0516 101.84 7.41579C101.18 6.69803 99.3036 7.39909 98.9454 8.4689C98.3929 10.1199 98.3747 11.7982 99.1579 13.4036C99.5859 14.2792 101.195 14.739 102.019 14.2413C102.09 14.1797 102.148 14.1042 102.189 14.0193C102.229 13.9345 102.252 13.8422 102.256 13.7481C102.285 13.1988 102.266 12.648 102.266 12.0212H100.234C100.204 11.4355 100.176 10.9241 100.146 10.3521H103.763C103.763 11.9757 103.763 13.5584 103.754 15.1426C103.746 15.2245 103.722 15.3039 103.683 15.3762C103.644 15.4484 103.591 15.512 103.526 15.563C101.867 16.7527 98.7663 16.0561 97.7949 14.2701C97.0026 12.8134 96.9889 11.2291 97.1103 9.62671C97.2075 8.33536 97.6279 7.15782 98.6024 6.25494C99.6451 5.29135 102.028 5.25342 103.031 6.23976C103.424 6.62823 103.613 7.22762 103.893 7.7299Z" fill="white"/>
<path d="M23.3942 7.32779H19.032V9.78909C19.9305 9.78909 20.8792 9.8073 21.8278 9.78909C22.8508 9.76633 22.8523 9.74964 22.8614 10.7754C22.8614 10.9499 22.8432 11.1229 22.8296 11.3824H18.9986V14.3308H23.552V15.9333C23.3228 15.9439 23.0572 15.9666 22.7931 15.9666C21.2024 15.9666 19.6057 15.9439 18.0226 15.9757C17.5445 15.9864 17.4018 15.8361 17.4033 15.3809C17.4185 12.4067 17.4226 9.43148 17.4155 6.45526C17.4155 6.01216 17.4246 5.66466 18.0363 5.67529C19.4964 5.69957 20.9581 5.67529 22.4197 5.67529C23.4549 5.67529 23.4579 5.67529 23.4534 6.70108C23.4519 6.86952 23.4215 7.04251 23.3942 7.32779Z" fill="white"/>
<path d="M117.883 11.4174C117.813 9.61462 118.296 7.73905 119.125 6.67684C120.339 5.10628 122.431 5.12145 123.66 6.68898C125.33 8.82251 125.451 12.4143 123.924 14.6693C123.208 15.7315 121.828 16.3734 120.559 15.9818C118.754 15.4219 117.962 13.4674 117.883 11.4174ZM123.399 10.4796C123.39 10.1837 123.359 9.88894 123.305 9.59793C123.129 8.6647 122.594 7.22464 121.499 7.14118C120.814 7.08807 120.353 7.42646 120.038 8.01978C119.419 9.18822 119.372 10.8756 119.604 12.1564C119.706 12.7208 119.862 13.2944 120.211 13.7527C120.561 14.211 121.134 14.5327 121.702 14.4401C121.923 14.3932 122.132 14.3003 122.315 14.1675C122.498 14.0347 122.651 13.865 122.764 13.6693C122.991 13.278 123.145 12.8494 123.22 12.4037C123.354 11.7715 123.414 11.1257 123.399 10.4796Z" fill="white"/>
<path d="M108.119 15.8878C108.119 13.4598 108.119 11.1017 108.119 8.73904C108.119 7.90748 108.112 7.06985 108.078 6.24435C108.06 5.79974 108.191 5.63737 108.673 5.6222C113.392 5.47045 115.141 9.76332 113.834 13.2959C113.187 15.0395 111.238 16.0759 109.083 15.9621C108.805 15.9469 108.534 15.9211 108.119 15.8878ZM109.716 7.39003V14.1897C111.462 14.2079 112.612 13.0441 112.717 11.3217C112.846 9.19731 111.378 7.39762 109.716 7.38851V7.39003Z" fill="white"/>
<path d="M6.59481 5.76632H8.13389V9.8255H11.4549C11.4549 8.79819 11.4549 7.85282 11.4549 6.89227C11.4443 5.52657 11.4974 5.48863 12.9727 5.83006C12.9727 7.46587 12.9727 9.12292 12.9727 10.7815C12.9727 12.2716 12.9727 13.7633 12.9924 15.2534C12.9924 15.7087 12.9773 16.0455 12.358 15.9909C11.8359 15.9439 11.379 16.0213 11.4291 15.2155C11.5035 13.9909 11.4488 12.7572 11.4488 11.4719H8.1096V13.2231C8.1096 13.9059 8.09594 14.5888 8.1096 15.2686C8.12174 15.7087 8.05344 16.0273 7.50247 15.9621C7.08962 15.9074 6.57356 16.1017 6.59178 15.3247C6.62365 13.0789 6.59178 10.8301 6.59178 8.58271C6.5933 7.65403 6.59481 6.72535 6.59481 5.76632Z" fill="white"/>
<path d="M78.6447 5.69807C80.4661 5.56757 80.4859 5.56302 80.9488 7.20034C81.7077 9.89837 82.4454 12.6025 83.1876 15.3066C83.232 15.521 83.2639 15.7379 83.2832 15.956H81.7548C81.5544 15.1973 81.3753 14.3855 81.1157 13.604C81.0459 13.3931 80.75 13.2352 80.5268 13.1032C80.4115 13.0365 80.2233 13.0744 80.0791 13.0729C78.2926 13.0653 78.2926 13.0729 77.8448 14.7952C77.5155 16.0714 77.5155 16.0714 76.0234 15.9105C76.8962 12.5114 77.7659 9.12599 78.6447 5.69807ZM79.6602 7.65406H79.5266C79.2382 8.85133 78.9513 10.0471 78.6462 11.3187H80.6088L79.6602 7.65406Z" fill="white"/>
<path d="M48.1152 5.78751C48.305 5.72074 48.3277 5.71012 48.352 5.70556C49.4585 5.45822 50.1157 5.89828 50.5179 6.95594C50.8215 7.76778 51.3087 8.51285 51.7762 9.40511C52.2756 8.3778 52.696 7.47036 53.1529 6.58113C53.6948 5.51892 53.883 5.45822 55.2885 5.79661C54.8544 6.69342 54.4355 7.56444 54.012 8.43394C53.9337 8.62019 53.836 8.7977 53.7206 8.96353C52.2619 10.8072 52.4957 12.9742 52.5397 15.1047C52.5397 15.3535 52.5397 15.6024 52.5397 15.8209C52.4592 15.8786 52.4228 15.9256 52.3879 15.9302C51.0522 16.0591 51.0477 16.0591 51.0128 14.7162C50.9803 14.1879 50.9859 13.6579 51.0295 13.1305C51.2237 11.5493 50.5134 10.2473 49.7924 8.95139C49.2157 7.9256 48.6844 6.88007 48.1152 5.78751Z" fill="white"/>
<path d="M72.9343 15.9514C70.8837 15.9514 68.9212 15.9378 66.9587 15.9605C66.4502 15.9605 66.3409 15.8088 66.3515 15.305C66.3682 12.3141 66.3682 9.32319 66.3075 6.33381C66.2923 5.57508 66.7371 5.67068 67.1711 5.6373C67.6675 5.59784 67.9452 5.72834 67.9301 6.34746C67.8906 8.76628 67.9301 11.1866 67.8967 13.6054C67.8967 14.1988 68.0485 14.3642 68.6738 14.3338C69.9548 14.2625 71.2435 14.2974 72.5275 14.3338C72.6869 14.3338 72.945 14.5948 72.9708 14.7632C73.0224 15.1244 72.9556 15.5053 72.9343 15.9514Z" fill="white"/>
</svg>
